<?xml version="1.0" encoding="UTF-8" standalone="no"?>
<!DOCTYPE svg PUBLIC "-//W3C//DTD SVG 1.1//EN"
 "http://www.w3.org/Graphics/SVG/1.1/DTD/svg11.dtd">
<!-- Generated by graphviz version 2.28.0 (20110509.1545)
 -->
<!-- Title: calls Pages: 1 -->
<svg width="2334pt" height="548pt"
 viewBox="0.00 0.00 2334.00 548.00" xmlns="http://www.w3.org/2000/svg" xmlns:xlink="http://www.w3.org/1999/xlink">
<g id="graph1" class="graph" transform="scale(1 1) rotate(0) translate(4 544)">
<title>calls</title>
<polygon fill="white" stroke="white" points="-4,5 -4,-544 2331,-544 2331,5 -4,5"/>
<!-- ALLOC -->
<g id="node1" class="node"><title>ALLOC</title>
<polygon fill="gold" stroke="black" points="1760,-180 1698,-180 1698,-144 1760,-144 1760,-180"/>
<text text-anchor="middle" x="1729" y="-156.4" font-family="Times,serif" font-size="14.00">ALLOC</text>
</g>
<!-- SEG -->
<g id="node3" class="node"><title>SEG</title>
<polygon fill="gold" stroke="black" points="1537,-108 1483,-108 1483,-72 1537,-72 1537,-108"/>
<text text-anchor="middle" x="1510" y="-84.4" font-family="Times,serif" font-size="14.00">SEG</text>
</g>
<!-- ALLOC&#45;&gt;SEG -->
<g id="edge2" class="edge"><title>ALLOC&#45;&gt;SEG</title>
<path fill="none" stroke="black" d="M1697.79,-147.668C1694.5,-146.381 1691.2,-145.135 1688,-144 1639.81,-126.888 1583.02,-110.638 1546.77,-100.749"/>
<polygon fill="black" stroke="black" points="1547.69,-97.3699 1537.12,-98.1325 1545.86,-104.126 1547.69,-97.3699"/>
</g>
<!-- BOX -->
<g id="node4" class="node"><title>BOX</title>
<polygon fill="gold" stroke="black" points="1298,-252 1244,-252 1244,-216 1298,-216 1298,-252"/>
<text text-anchor="middle" x="1271" y="-228.4" font-family="Times,serif" font-size="14.00">BOX</text>
</g>
<!-- BOX&#45;&gt;ALLOC -->
<g id="edge4" class="edge"><title>BOX&#45;&gt;ALLOC</title>
<path fill="none" stroke="black" d="M1298.29,-226.383C1313.44,-222.895 1332.68,-218.777 1350,-216 1499.17,-192.076 1541.61,-217.315 1688,-180 1688.1,-179.974 1688.21,-179.947 1688.31,-179.921"/>
<polygon fill="black" stroke="black" points="1689.45,-183.232 1697.98,-176.943 1687.39,-176.542 1689.45,-183.232"/>
</g>
<!-- FORM -->
<g id="node7" class="node"><title>FORM</title>
<polygon fill="gold" stroke="black" points="1392.27,-180 1337.73,-180 1337.73,-144 1392.27,-144 1392.27,-180"/>
<text text-anchor="middle" x="1365" y="-156.4" font-family="Times,serif" font-size="14.00">FORM</text>
</g>
<!-- BOX&#45;&gt;FORM -->
<g id="edge6" class="edge"><title>BOX&#45;&gt;FORM</title>
<path fill="none" stroke="black" d="M1294.24,-215.697C1306.19,-206.796 1320.92,-195.823 1333.85,-186.199"/>
<polygon fill="black" stroke="black" points="1336.1,-188.884 1342.03,-180.104 1331.92,-183.27 1336.1,-188.884"/>
</g>
<!-- FREE -->
<g id="node9" class="node"><title>FREE</title>
<polygon fill="gold" stroke="black" points="1146,-180 1092,-180 1092,-144 1146,-144 1146,-180"/>
<text text-anchor="middle" x="1119" y="-156.4" font-family="Times,serif" font-size="14.00">FREE</text>
</g>
<!-- BOX&#45;&gt;FREE -->
<g id="edge8" class="edge"><title>BOX&#45;&gt;FREE</title>
<path fill="none" stroke="black" d="M1243.83,-220.485C1219.15,-209.123 1182.57,-192.278 1155.39,-179.757"/>
<polygon fill="black" stroke="black" points="1156.74,-176.528 1146.2,-175.524 1153.81,-182.886 1156.74,-176.528"/>
</g>
<!-- NPLOT -->
<g id="node25" class="node"><title>NPLOT</title>
<polygon fill="gold" stroke="black" points="1818.33,-108 1757.67,-108 1757.67,-72 1818.33,-72 1818.33,-108"/>
<text text-anchor="middle" x="1788" y="-84.4" font-family="Times,serif" font-size="14.00">NPLOT</text>
</g>
<!-- FORM&#45;&gt;NPLOT -->
<g id="edge48" class="edge"><title>FORM&#45;&gt;NPLOT</title>
<path fill="none" stroke="black" d="M1392.69,-148.68C1397.4,-146.908 1402.29,-145.26 1407,-144 1528.19,-111.577 1676.68,-98.1991 1747.15,-93.3746"/>
<polygon fill="black" stroke="black" points="1747.62,-96.851 1757.37,-92.6978 1747.16,-89.8663 1747.62,-96.851"/>
</g>
<!-- FREE&#45;&gt;SEG -->
<g id="edge58" class="edge"><title>FREE&#45;&gt;SEG</title>
<path fill="none" stroke="black" d="M1146.18,-156.133C1214.8,-143.849 1395.09,-111.572 1473.12,-97.602"/>
<polygon fill="black" stroke="black" points="1473.77,-101.042 1483,-95.8345 1472.54,-94.1516 1473.77,-101.042"/>
</g>
<!-- DRAW -->
<g id="node10" class="node"><title>DRAW</title>
<polygon fill="gold" stroke="black" points="1299.25,-324 1242.75,-324 1242.75,-288 1299.25,-288 1299.25,-324"/>
<text text-anchor="middle" x="1271" y="-300.4" font-family="Times,serif" font-size="14.00">DRAW</text>
</g>
<!-- DRAW&#45;&gt;ALLOC -->
<g id="edge12" class="edge"><title>DRAW&#45;&gt;ALLOC</title>
<path fill="none" stroke="black" d="M1293.87,-287.812C1307.4,-277.554 1324.8,-264.192 1340,-252 1359.44,-236.405 1360.11,-225.872 1383,-216 1508.33,-161.935 1555.93,-214.467 1688,-180 1688.1,-179.973 1688.21,-179.946 1688.31,-179.919"/>
<polygon fill="black" stroke="black" points="1689.46,-183.225 1697.97,-176.905 1687.38,-176.543 1689.46,-183.225"/>
</g>
<!-- DRAW&#45;&gt;SEG -->
<g id="edge14" class="edge"><title>DRAW&#45;&gt;SEG</title>
<path fill="none" stroke="black" d="M1285.26,-287.889C1292.81,-277.981 1301.62,-264.94 1307,-252 1325.79,-206.854 1295.04,-180.119 1328,-144 1365.04,-103.413 1431.18,-93.2234 1472.71,-91.0451"/>
<polygon fill="black" stroke="black" points="1473.11,-94.5324 1482.96,-90.6436 1472.83,-87.5378 1473.11,-94.5324"/>
</g>
<!-- DRAW&#45;&gt;FORM -->
<g id="edge18" class="edge"><title>DRAW&#45;&gt;FORM</title>
<path fill="none" stroke="black" d="M1299.49,-303.855C1362.85,-300.65 1512.33,-289.223 1543,-252 1553.17,-239.652 1552.76,-228.679 1543,-216 1504.86,-166.452 1466.32,-199.769 1407,-180 1405.36,-179.453 1403.69,-178.874 1402.01,-178.273"/>
<polygon fill="black" stroke="black" points="1402.97,-174.896 1392.38,-174.658 1400.51,-181.45 1402.97,-174.896"/>
</g>
<!-- PUSH -->
<g id="node12" class="node"><title>PUSH</title>
<polygon fill="gold" stroke="black" points="591,-108 537,-108 537,-72 591,-72 591,-108"/>
<text text-anchor="middle" x="564" y="-84.4" font-family="Times,serif" font-size="14.00">PUSH</text>
</g>
<!-- DRAW&#45;&gt;PUSH -->
<g id="edge10" class="edge"><title>DRAW&#45;&gt;PUSH</title>
<path fill="none" stroke="black" d="M1252.47,-287.758C1242.3,-277.809 1229.79,-264.77 1220,-252 1185.92,-207.536 1202.75,-173.3 1155,-144 1059.86,-85.6218 764.69,-122.383 654,-108 636.537,-105.731 617.341,-102.244 601.179,-99.017"/>
<polygon fill="black" stroke="black" points="601.543,-95.5192 591.045,-96.9496 600.143,-102.378 601.543,-95.5192"/>
</g>
<!-- DIM -->
<g id="node16" class="node"><title>DIM</title>
<polygon fill="gold" stroke="black" points="264,-252 210,-252 210,-216 264,-216 264,-252"/>
<text text-anchor="middle" x="237" y="-228.4" font-family="Times,serif" font-size="14.00">DIM</text>
</g>
<!-- DRAW&#45;&gt;DIM -->
<g id="edge16" class="edge"><title>DRAW&#45;&gt;DIM</title>
<path fill="none" stroke="black" d="M1242.72,-303.85C1132.77,-299.265 723.219,-281.111 387,-252 348.461,-248.663 304.5,-243.523 274.179,-239.768"/>
<polygon fill="black" stroke="black" points="274.412,-236.27 264.055,-238.503 273.544,-243.216 274.412,-236.27"/>
</g>
<!-- FREDIS -->
<g id="node19" class="node"><title>FREDIS</title>
<polygon fill="gold" stroke="black" points="1032.18,-252 967.824,-252 967.824,-216 1032.18,-216 1032.18,-252"/>
<text text-anchor="middle" x="1000" y="-228.4" font-family="Times,serif" font-size="14.00">FREDIS</text>
</g>
<!-- DRAW&#45;&gt;FREDIS -->
<g id="edge20" class="edge"><title>DRAW&#45;&gt;FREDIS</title>
<path fill="none" stroke="black" d="M1242.51,-297.641C1194.66,-285.282 1097.94,-260.299 1042.19,-245.898"/>
<polygon fill="black" stroke="black" points="1042.84,-242.45 1032.28,-243.338 1041.09,-249.228 1042.84,-242.45"/>
</g>
<!-- SETALL -->
<g id="node21" class="node"><title>SETALL</title>
<polygon fill="gold" stroke="black" points="1534.24,-252 1467.76,-252 1467.76,-216 1534.24,-216 1534.24,-252"/>
<text text-anchor="middle" x="1501" y="-228.4" font-family="Times,serif" font-size="14.00">SETALL</text>
</g>
<!-- DRAW&#45;&gt;SETALL -->
<g id="edge22" class="edge"><title>DRAW&#45;&gt;SETALL</title>
<path fill="none" stroke="black" d="M1299.33,-298.05C1334.5,-289.196 1396.47,-272.871 1457.82,-252.231"/>
<polygon fill="black" stroke="black" points="1459.32,-255.418 1467.65,-248.882 1457.06,-248.792 1459.32,-255.418"/>
</g>
<!-- SHARE -->
<g id="node23" class="node"><title>SHARE</title>
<polygon fill="gold" stroke="black" points="1149.42,-252 1088.58,-252 1088.58,-216 1149.42,-216 1149.42,-252"/>
<text text-anchor="middle" x="1119" y="-228.4" font-family="Times,serif" font-size="14.00">SHARE</text>
</g>
<!-- DRAW&#45;&gt;SHARE -->
<g id="edge24" class="edge"><title>DRAW&#45;&gt;SHARE</title>
<path fill="none" stroke="black" d="M1242.41,-291.834C1218.82,-280.97 1185.08,-265.433 1158.84,-253.349"/>
<polygon fill="black" stroke="black" points="1160.1,-250.072 1149.55,-249.068 1157.17,-256.43 1160.1,-250.072"/>
</g>
<!-- DRAW&#45;&gt;NPLOT -->
<g id="edge26" class="edge"><title>DRAW&#45;&gt;NPLOT</title>
<path fill="none" stroke="black" d="M1299.35,-304.238C1365.67,-301.798 1527.81,-291.801 1561,-252 1622.68,-178.029 1479.62,-233.118 1440,-180 1430.43,-167.174 1429.57,-156.136 1440,-144 1459.85,-120.894 1659.9,-101.629 1747.39,-94.2387"/>
<polygon fill="black" stroke="black" points="1747.81,-97.7161 1757.49,-93.397 1747.23,-90.7403 1747.81,-97.7161"/>
</g>
<!-- MARK -->
<g id="node27" class="node"><title>MARK</title>
<polygon fill="gold" stroke="black" points="1450.01,-252 1391.99,-252 1391.99,-216 1450.01,-216 1450.01,-252"/>
<text text-anchor="middle" x="1421" y="-228.4" font-family="Times,serif" font-size="14.00">MARK</text>
</g>
<!-- DRAW&#45;&gt;MARK -->
<g id="edge28" class="edge"><title>DRAW&#45;&gt;MARK</title>
<path fill="none" stroke="black" d="M1299.57,-291.669C1323.11,-280.681 1356.72,-264.997 1382.61,-252.913"/>
<polygon fill="black" stroke="black" points="1384.19,-256.04 1391.77,-248.64 1381.23,-249.697 1384.19,-256.04"/>
</g>
<!-- LABEL -->
<g id="node29" class="node"><title>LABEL</title>
<polygon fill="gold" stroke="black" points="1689.33,-252 1628.67,-252 1628.67,-216 1689.33,-216 1689.33,-252"/>
<text text-anchor="middle" x="1659" y="-228.4" font-family="Times,serif" font-size="14.00">LABEL</text>
</g>
<!-- DRAW&#45;&gt;LABEL -->
<g id="edge30" class="edge"><title>DRAW&#45;&gt;LABEL</title>
<path fill="none" stroke="black" d="M1299.42,-302.624C1358.69,-297.23 1499.49,-282.125 1614,-252 1615.46,-251.615 1616.95,-251.199 1618.44,-250.759"/>
<polygon fill="black" stroke="black" points="1619.86,-253.978 1628.29,-247.566 1617.7,-247.319 1619.86,-253.978"/>
</g>
<!-- PUSHNZ -->
<g id="node31" class="node"><title>PUSHNZ</title>
<polygon fill="gold" stroke="black" points="662.342,-180 591.658,-180 591.658,-144 662.342,-144 662.342,-180"/>
<text text-anchor="middle" x="627" y="-156.4" font-family="Times,serif" font-size="14.00">PUSHNZ</text>
</g>
<!-- DRAW&#45;&gt;PUSHNZ -->
<g id="edge32" class="edge"><title>DRAW&#45;&gt;PUSHNZ</title>
<path fill="none" stroke="black" d="M1242.42,-302.78C1186.76,-297.885 1060.4,-283.958 959,-252 923.353,-240.765 918.44,-227.873 883,-216 811.333,-191.991 724.579,-176.791 672.691,-169.098"/>
<polygon fill="black" stroke="black" points="672.879,-165.589 662.48,-167.615 671.873,-172.516 672.879,-165.589"/>
</g>
<!-- PULL -->
<g id="node33" class="node"><title>PULL</title>
<polygon fill="gold" stroke="black" points="717,-108 663,-108 663,-72 717,-72 717,-108"/>
<text text-anchor="middle" x="690" y="-84.4" font-family="Times,serif" font-size="14.00">PULL</text>
</g>
<!-- DRAW&#45;&gt;PULL -->
<g id="edge34" class="edge"><title>DRAW&#45;&gt;PULL</title>
<path fill="none" stroke="black" d="M1258,-287.933C1250.67,-277.827 1241.67,-264.577 1235,-252 1210.79,-206.361 1233.18,-175.207 1192,-144 1155.12,-116.048 837.369,-98.1417 727.326,-92.7321"/>
<polygon fill="black" stroke="black" points="727.2,-89.222 717.042,-92.2334 726.861,-96.2138 727.2,-89.222"/>
</g>
<!-- FREDIS&#45;&gt;FREE -->
<g id="edge56" class="edge"><title>FREDIS&#45;&gt;FREE</title>
<path fill="none" stroke="black" d="M1029.11,-215.876C1045.4,-206.294 1065.84,-194.269 1083.12,-184.108"/>
<polygon fill="black" stroke="black" points="1084.98,-187.074 1091.82,-178.987 1081.43,-181.041 1084.98,-187.074"/>
</g>
<!-- FREDIS&#45;&gt;PUSH -->
<g id="edge50" class="edge"><title>FREDIS&#45;&gt;PUSH</title>
<path fill="none" stroke="black" d="M998.228,-215.793C995.118,-195.18 986.672,-161.272 964,-144 908.833,-101.973 722.561,-118.443 654,-108 636.591,-105.348 617.402,-101.81 601.231,-98.6476"/>
<polygon fill="black" stroke="black" points="601.579,-95.1485 591.089,-96.6371 600.218,-102.015 601.579,-95.1485"/>
</g>
<!-- FREDIS&#45;&gt;PUSHNZ -->
<g id="edge52" class="edge"><title>FREDIS&#45;&gt;PUSHNZ</title>
<path fill="none" stroke="black" d="M967.833,-220.221C963.234,-218.656 958.529,-217.192 954,-216 855.216,-190.002 736.101,-174.567 672.416,-167.552"/>
<polygon fill="black" stroke="black" points="672.627,-164.055 662.309,-166.458 671.874,-171.014 672.627,-164.055"/>
</g>
<!-- FREDIS&#45;&gt;PULL -->
<g id="edge54" class="edge"><title>FREDIS&#45;&gt;PULL</title>
<path fill="none" stroke="black" d="M1005.46,-215.652C1010.52,-195.85 1014.95,-163.667 998,-144 963.39,-103.85 802.189,-94.114 727.798,-91.7542"/>
<polygon fill="black" stroke="black" points="727.575,-88.2464 717.478,-91.4568 727.373,-95.2435 727.575,-88.2464"/>
</g>
<!-- COUNTR -->
<g id="node122" class="node"><title>COUNTR</title>
<polygon fill="gold" stroke="black" points="955.173,-180 882.827,-180 882.827,-144 955.173,-144 955.173,-180"/>
<text text-anchor="middle" x="919" y="-156.4" font-family="Times,serif" font-size="14.00">COUNTR</text>
</g>
<!-- SHARE&#45;&gt;COUNTR -->
<g id="edge152" class="edge"><title>SHARE&#45;&gt;COUNTR</title>
<path fill="none" stroke="black" d="M1088.19,-222.216C1055.3,-210.704 1002.82,-192.336 965.026,-179.109"/>
<polygon fill="black" stroke="black" points="965.865,-175.695 955.27,-175.695 963.552,-182.302 965.865,-175.695"/>
</g>
<!-- PLOT -->
<g id="node113" class="node"><title>PLOT</title>
<polygon fill="gold" stroke="black" points="1815,-36 1761,-36 1761,-0 1815,-0 1815,-36"/>
<text text-anchor="middle" x="1788" y="-12.4" font-family="Times,serif" font-size="14.00">PLOT</text>
</g>
<!-- NPLOT&#45;&gt;PLOT -->
<g id="edge138" class="edge"><title>NPLOT&#45;&gt;PLOT</title>
<path fill="none" stroke="black" d="M1788,-71.6966C1788,-63.9827 1788,-54.7125 1788,-46.1124"/>
<polygon fill="black" stroke="black" points="1791.5,-46.1043 1788,-36.1043 1784.5,-46.1044 1791.5,-46.1043"/>
</g>
<!-- LABEL&#45;&gt;NPLOT -->
<g id="edge108" class="edge"><title>LABEL&#45;&gt;NPLOT</title>
<path fill="none" stroke="black" d="M1689.35,-226.268C1714.5,-219.085 1749.22,-205.168 1769,-180 1782.69,-162.577 1787.08,-137.531 1788.26,-118.444"/>
<polygon fill="black" stroke="black" points="1791.76,-118.387 1788.62,-108.269 1784.77,-118.138 1791.76,-118.387"/>
</g>
<!-- APPEND -->
<g id="node86" class="node"><title>APPEND</title>
<polygon fill="gold" stroke="black" points="1519.34,-180 1448.66,-180 1448.66,-144 1519.34,-144 1519.34,-180"/>
<text text-anchor="middle" x="1484" y="-156.4" font-family="Times,serif" font-size="14.00">APPEND</text>
</g>
<!-- LABEL&#45;&gt;APPEND -->
<g id="edge102" class="edge"><title>LABEL&#45;&gt;APPEND</title>
<path fill="none" stroke="black" d="M1628.52,-220.807C1600.92,-209.767 1559.91,-193.365 1528.62,-180.849"/>
<polygon fill="black" stroke="black" points="1529.83,-177.564 1519.25,-177.1 1527.23,-184.063 1529.83,-177.564"/>
</g>
<!-- RESET -->
<g id="node88" class="node"><title>RESET</title>
<polygon fill="gold" stroke="black" points="1596.09,-180 1537.91,-180 1537.91,-144 1596.09,-144 1596.09,-180"/>
<text text-anchor="middle" x="1567" y="-156.4" font-family="Times,serif" font-size="14.00">RESET</text>
</g>
<!-- LABEL&#45;&gt;RESET -->
<g id="edge104" class="edge"><title>LABEL&#45;&gt;RESET</title>
<path fill="none" stroke="black" d="M1636.26,-215.697C1624.56,-206.796 1610.14,-195.823 1597.49,-186.199"/>
<polygon fill="black" stroke="black" points="1599.56,-183.374 1589.48,-180.104 1595.32,-188.945 1599.56,-183.374"/>
</g>
<!-- INTSTY -->
<g id="node90" class="node"><title>INTSTY</title>
<polygon fill="gold" stroke="black" points="1679.33,-180 1614.67,-180 1614.67,-144 1679.33,-144 1679.33,-180"/>
<text text-anchor="middle" x="1647" y="-156.4" font-family="Times,serif" font-size="14.00">INTSTY</text>
</g>
<!-- LABEL&#45;&gt;INTSTY -->
<g id="edge106" class="edge"><title>LABEL&#45;&gt;INTSTY</title>
<path fill="none" stroke="black" d="M1656.03,-215.697C1654.71,-207.983 1653.12,-198.712 1651.65,-190.112"/>
<polygon fill="black" stroke="black" points="1655.07,-189.369 1649.93,-180.104 1648.17,-190.552 1655.07,-189.369"/>
</g>
<!-- STRING -->
<g id="node93" class="node"><title>STRING</title>
<polygon fill="gold" stroke="black" points="1881.92,-180 1816.08,-180 1816.08,-144 1881.92,-144 1881.92,-180"/>
<text text-anchor="middle" x="1849" y="-156.4" font-family="Times,serif" font-size="14.00">STRING</text>
</g>
<!-- LABEL&#45;&gt;STRING -->
<g id="edge110" class="edge"><title>LABEL&#45;&gt;STRING</title>
<path fill="none" stroke="black" d="M1689.53,-221.753C1721.17,-210.096 1770.88,-191.782 1806.38,-178.7"/>
<polygon fill="black" stroke="black" points="1807.82,-181.901 1816,-175.159 1805.4,-175.332 1807.82,-181.901"/>
</g>
<!-- PUSHNZ&#45;&gt;PUSH -->
<g id="edge140" class="edge"><title>PUSHNZ&#45;&gt;PUSH</title>
<path fill="none" stroke="black" d="M611.427,-143.697C603.798,-135.22 594.477,-124.864 586.124,-115.583"/>
<polygon fill="black" stroke="black" points="588.685,-113.196 579.394,-108.104 583.482,-117.879 588.685,-113.196"/>
</g>
<!-- DUMPER -->
<g id="node34" class="node"><title>DUMPER</title>
<polygon fill="gold" stroke="black" points="622.259,-324 547.741,-324 547.741,-288 622.259,-288 622.259,-324"/>
<text text-anchor="middle" x="585" y="-300.4" font-family="Times,serif" font-size="14.00">DUMPER</text>
</g>
<!-- DUMPER&#45;&gt;BOX -->
<g id="edge40" class="edge"><title>DUMPER&#45;&gt;BOX</title>
<path fill="none" stroke="black" d="M622.141,-290.262C625.109,-289.396 628.086,-288.624 631,-288 860.556,-238.807 924.619,-277.484 1158,-252 1183.37,-249.23 1211.77,-244.952 1233.76,-241.38"/>
<polygon fill="black" stroke="black" points="1234.38,-244.824 1243.68,-239.745 1233.24,-237.917 1234.38,-244.824"/>
</g>
<!-- DUMPER&#45;&gt;PUSH -->
<g id="edge38" class="edge"><title>DUMPER&#45;&gt;PUSH</title>
<path fill="none" stroke="black" d="M548.486,-287.924C534.402,-279.293 519.824,-267.349 512,-252 490.201,-209.235 493.843,-188.433 512,-144 516.488,-133.017 524.47,-123.081 532.854,-114.858"/>
<polygon fill="black" stroke="black" points="535.235,-117.424 540.248,-108.09 530.508,-112.261 535.235,-117.424"/>
</g>
<!-- DUMPER&#45;&gt;PUSHNZ -->
<g id="edge42" class="edge"><title>DUMPER&#45;&gt;PUSHNZ</title>
<path fill="none" stroke="black" d="M590.066,-287.871C597.256,-263.564 610.49,-218.819 619.01,-190.013"/>
<polygon fill="black" stroke="black" points="622.436,-190.771 621.916,-180.189 615.723,-188.786 622.436,-190.771"/>
</g>
<!-- DUMPER&#45;&gt;PULL -->
<g id="edge44" class="edge"><title>DUMPER&#45;&gt;PULL</title>
<path fill="none" stroke="black" d="M579.233,-287.906C569.816,-256.658 554.846,-189.365 583,-144 598.18,-119.54 628.377,-106.021 652.831,-98.7712"/>
<polygon fill="black" stroke="black" points="653.83,-102.127 662.558,-96.1192 651.989,-95.373 653.83,-102.127"/>
</g>
<!-- DELFIL -->
<g id="node36" class="node"><title>DELFIL</title>
<polygon fill="gold" stroke="black" points="460.161,-252 395.839,-252 395.839,-216 460.161,-216 460.161,-252"/>
<text text-anchor="middle" x="428" y="-228.4" font-family="Times,serif" font-size="14.00">DELFIL</text>
</g>
<!-- DUMPER&#45;&gt;DELFIL -->
<g id="edge36" class="edge"><title>DUMPER&#45;&gt;DELFIL</title>
<path fill="none" stroke="black" d="M547.793,-288.411C524.258,-277.918 493.8,-264.338 469.486,-253.497"/>
<polygon fill="black" stroke="black" points="470.718,-250.214 460.159,-249.338 467.867,-256.607 470.718,-250.214"/>
</g>
<!-- ERROR -->
<g id="node41" class="node"><title>ERROR</title>
<polygon fill="gold" stroke="black" points="241.009,-396 178.991,-396 178.991,-360 241.009,-360 241.009,-396"/>
<text text-anchor="middle" x="210" y="-372.4" font-family="Times,serif" font-size="14.00">ERROR</text>
</g>
<!-- DUMP -->
<g id="node43" class="node"><title>DUMP</title>
<polygon fill="gold" stroke="black" points="235.342,-324 178.658,-324 178.658,-288 235.342,-288 235.342,-324"/>
<text text-anchor="middle" x="207" y="-300.4" font-family="Times,serif" font-size="14.00">DUMP</text>
</g>
<!-- ERROR&#45;&gt;DUMP -->
<g id="edge46" class="edge"><title>ERROR&#45;&gt;DUMP</title>
<path fill="none" stroke="black" d="M209.258,-359.697C208.928,-351.983 208.531,-342.712 208.162,-334.112"/>
<polygon fill="black" stroke="black" points="211.658,-333.945 207.733,-324.104 204.665,-334.245 211.658,-333.945"/>
</g>
<!-- FRENOD -->
<g id="node50" class="node"><title>FRENOD</title>
<polygon fill="gold" stroke="black" points="778.005,-252 705.995,-252 705.995,-216 778.005,-216 778.005,-252"/>
<text text-anchor="middle" x="742" y="-228.4" font-family="Times,serif" font-size="14.00">FRENOD</text>
</g>
<!-- FRENOD&#45;&gt;FREE -->
<g id="edge60" class="edge"><title>FRENOD&#45;&gt;FREE</title>
<path fill="none" stroke="black" d="M778.143,-218.625C781.116,-217.663 784.094,-216.772 787,-216 892.052,-188.082 1019.95,-172.735 1081.87,-166.443"/>
<polygon fill="black" stroke="black" points="1082.33,-169.915 1091.93,-165.442 1081.64,-162.949 1082.33,-169.915"/>
</g>
<!-- FRETRE -->
<g id="node52" class="node"><title>FRETRE</title>
<polygon fill="gold" stroke="black" points="708.088,-324 639.912,-324 639.912,-288 708.088,-288 708.088,-324"/>
<text text-anchor="middle" x="674" y="-300.4" font-family="Times,serif" font-size="14.00">FRETRE</text>
</g>
<!-- FRETRE&#45;&gt;PUSH -->
<g id="edge62" class="edge"><title>FRETRE&#45;&gt;PUSH</title>
<path fill="none" stroke="black" d="M657.831,-287.869C637.235,-265.07 602.037,-222.651 583,-180 574.213,-160.313 569.395,-136.327 566.812,-118.219"/>
<polygon fill="black" stroke="black" points="570.252,-117.526 565.506,-108.054 563.309,-118.418 570.252,-117.526"/>
</g>
<!-- FRETRE&#45;&gt;PUSHNZ -->
<g id="edge64" class="edge"><title>FRETRE&#45;&gt;PUSHNZ</title>
<path fill="none" stroke="black" d="M668.331,-287.871C660.285,-263.564 645.475,-218.819 635.941,-190.013"/>
<polygon fill="black" stroke="black" points="639.154,-188.583 632.689,-180.189 632.509,-190.783 639.154,-188.583"/>
</g>
<!-- FRETRE&#45;&gt;PULL -->
<g id="edge68" class="edge"><title>FRETRE&#45;&gt;PULL</title>
<path fill="none" stroke="black" d="M675.282,-287.849C678.05,-250.832 684.603,-163.181 687.952,-118.386"/>
<polygon fill="black" stroke="black" points="691.456,-118.466 688.712,-108.232 684.476,-117.944 691.456,-118.466"/>
</g>
<!-- FRETRE&#45;&gt;FRENOD -->
<g id="edge66" class="edge"><title>FRETRE&#45;&gt;FRENOD</title>
<path fill="none" stroke="black" d="M690.809,-287.697C699.126,-279.135 709.305,-268.656 718.39,-259.304"/>
<polygon fill="black" stroke="black" points="720.927,-261.716 725.384,-252.104 715.906,-256.838 720.927,-261.716"/>
</g>
<!-- GEN -->
<g id="node57" class="node"><title>GEN</title>
<polygon fill="gold" stroke="black" points="192,-252 138,-252 138,-216 192,-216 192,-252"/>
<text text-anchor="middle" x="165" y="-228.4" font-family="Times,serif" font-size="14.00">GEN</text>
</g>
<!-- GENOUT -->
<g id="node59" class="node"><title>GENOUT</title>
<polygon fill="gold" stroke="black" points="301.162,-180 228.838,-180 228.838,-144 301.162,-144 301.162,-180"/>
<text text-anchor="middle" x="265" y="-156.4" font-family="Times,serif" font-size="14.00">GENOUT</text>
</g>
<!-- GEN&#45;&gt;GENOUT -->
<g id="edge70" class="edge"><title>GEN&#45;&gt;GENOUT</title>
<path fill="none" stroke="black" d="M189.463,-215.876C202.296,-206.893 218.196,-195.763 232.094,-186.034"/>
<polygon fill="black" stroke="black" points="234.258,-188.792 240.443,-180.19 230.244,-183.057 234.258,-188.792"/>
</g>
<!-- GENOUT&#45;&gt;PUSH -->
<g id="edge72" class="edge"><title>GENOUT&#45;&gt;PUSH</title>
<path fill="none" stroke="black" d="M301.345,-148.338C306.245,-146.792 311.228,-145.301 316,-144 390.003,-123.826 478.138,-106.564 526.898,-97.5944"/>
<polygon fill="black" stroke="black" points="527.765,-100.994 536.974,-95.7559 526.508,-94.1078 527.765,-100.994"/>
</g>
<!-- GENOUT&#45;&gt;PULL -->
<g id="edge74" class="edge"><title>GENOUT&#45;&gt;PULL</title>
<path fill="none" stroke="black" d="M301.249,-147.956C306.165,-146.471 311.177,-145.098 316,-144 440.056,-115.748 474.32,-127.817 600,-108 617.395,-105.257 636.582,-101.706 652.755,-98.5595"/>
<polygon fill="black" stroke="black" points="653.764,-101.928 662.899,-96.5626 652.412,-95.0601 653.764,-101.928"/>
</g>
<!-- INCMND -->
<g id="node62" class="node"><title>INCMND</title>
<polygon fill="gold" stroke="black" points="666.085,-396 593.915,-396 593.915,-360 666.085,-360 666.085,-396"/>
<text text-anchor="middle" x="630" y="-372.4" font-family="Times,serif" font-size="14.00">INCMND</text>
</g>
<!-- INCMND&#45;&gt;DRAW -->
<g id="edge92" class="edge"><title>INCMND&#45;&gt;DRAW</title>
<path fill="none" stroke="black" d="M666.3,-373.036C778.275,-360.808 1117.67,-323.744 1232.53,-311.201"/>
<polygon fill="black" stroke="black" points="1233.06,-314.665 1242.62,-310.1 1232.3,-307.706 1233.06,-314.665"/>
</g>
<!-- INCMND&#45;&gt;FREDIS -->
<g id="edge84" class="edge"><title>INCMND&#45;&gt;FREDIS</title>
<path fill="none" stroke="black" d="M666.266,-364.934C691.619,-355.665 725.688,-341.499 753,-324 773.138,-311.097 771.916,-299.293 793,-288 845.829,-259.704 914.415,-246.015 957.833,-239.765"/>
<polygon fill="black" stroke="black" points="958.338,-243.228 967.769,-238.401 957.386,-236.293 958.338,-243.228"/>
</g>
<!-- INCMND&#45;&gt;DUMPER -->
<g id="edge90" class="edge"><title>INCMND&#45;&gt;DUMPER</title>
<path fill="none" stroke="black" d="M618.876,-359.697C613.645,-351.559 607.3,-341.689 601.522,-332.701"/>
<polygon fill="black" stroke="black" points="604.347,-330.623 595.996,-324.104 598.459,-334.409 604.347,-330.623"/>
</g>
<!-- INCMND&#45;&gt;DUMP -->
<g id="edge88" class="edge"><title>INCMND&#45;&gt;DUMP</title>
<path fill="none" stroke="black" d="M593.878,-375.573C526.368,-372.157 376.716,-361.04 245.201,-323.875"/>
<polygon fill="black" stroke="black" points="245.942,-320.446 235.363,-321.036 244.001,-327.172 245.942,-320.446"/>
</g>
<!-- INCMND&#45;&gt;FRETRE -->
<g id="edge82" class="edge"><title>INCMND&#45;&gt;FRETRE</title>
<path fill="none" stroke="black" d="M640.876,-359.697C645.992,-351.559 652.195,-341.689 657.845,-332.701"/>
<polygon fill="black" stroke="black" points="660.89,-334.433 663.249,-324.104 654.964,-330.708 660.89,-334.433"/>
</g>
<!-- KEYSET -->
<g id="node64" class="node"><title>KEYSET</title>
<polygon fill="gold" stroke="black" points="408.249,-324 339.751,-324 339.751,-288 408.249,-288 408.249,-324"/>
<text text-anchor="middle" x="374" y="-300.4" font-family="Times,serif" font-size="14.00">KEYSET</text>
</g>
<!-- INCMND&#45;&gt;KEYSET -->
<g id="edge76" class="edge"><title>INCMND&#45;&gt;KEYSET</title>
<path fill="none" stroke="black" d="M593.609,-369.342C551.073,-360.06 478.759,-343.251 418,-324 417.902,-323.969 417.805,-323.938 417.707,-323.907"/>
<polygon fill="black" stroke="black" points="419.038,-320.662 408.444,-320.771 416.794,-327.293 419.038,-320.662"/>
</g>
<!-- NEWNOD -->
<g id="node66" class="node"><title>NEWNOD</title>
<polygon fill="gold" stroke="black" points="874.155,-252 795.845,-252 795.845,-216 874.155,-216 874.155,-252"/>
<text text-anchor="middle" x="835" y="-228.4" font-family="Times,serif" font-size="14.00">NEWNOD</text>
</g>
<!-- INCMND&#45;&gt;NEWNOD -->
<g id="edge78" class="edge"><title>INCMND&#45;&gt;NEWNOD</title>
<path fill="none" stroke="black" d="M660.509,-359.925C677.532,-350.028 698.89,-336.986 717,-324 737.255,-309.476 740.25,-303.205 760,-288 773.265,-277.787 788.266,-267.036 801.347,-257.906"/>
<polygon fill="black" stroke="black" points="803.406,-260.738 809.628,-252.163 799.416,-254.986 803.406,-260.738"/>
</g>
<!-- REFREP -->
<g id="node68" class="node"><title>REFREP</title>
<polygon fill="gold" stroke="black" points="320.513,-324 253.487,-324 253.487,-288 320.513,-288 320.513,-324"/>
<text text-anchor="middle" x="287" y="-300.4" font-family="Times,serif" font-size="14.00">REFREP</text>
</g>
<!-- INCMND&#45;&gt;REFREP -->
<g id="edge80" class="edge"><title>INCMND&#45;&gt;REFREP</title>
<path fill="none" stroke="black" d="M593.449,-372.956C538.198,-366.322 430.159,-351.322 330.224,-323.728"/>
<polygon fill="black" stroke="black" points="331.154,-320.354 320.58,-321.018 329.26,-327.093 331.154,-320.354"/>
</g>
<!-- TRANSL -->
<g id="node72" class="node"><title>TRANSL</title>
<polygon fill="gold" stroke="black" points="497.337,-324 426.663,-324 426.663,-288 497.337,-288 497.337,-324"/>
<text text-anchor="middle" x="462" y="-300.4" font-family="Times,serif" font-size="14.00">TRANSL</text>
</g>
<!-- INCMND&#45;&gt;TRANSL -->
<g id="edge86" class="edge"><title>INCMND&#45;&gt;TRANSL</title>
<path fill="none" stroke="black" d="M593.547,-361.811C567.994,-351.164 533.689,-336.87 506.518,-325.549"/>
<polygon fill="black" stroke="black" points="507.808,-322.295 497.231,-321.68 505.116,-328.757 507.808,-322.295"/>
</g>
<!-- TRANSL&#45;&gt;BOX -->
<g id="edge170" class="edge"><title>TRANSL&#45;&gt;BOX</title>
<path fill="none" stroke="black" d="M497.438,-295.938C510.43,-292.944 525.304,-289.898 539,-288 811.968,-250.175 883.905,-280.528 1158,-252 1183.38,-249.358 1211.78,-245.079 1233.77,-241.475"/>
<polygon fill="black" stroke="black" points="1234.4,-244.918 1243.69,-239.823 1233.25,-238.013 1234.4,-244.918"/>
</g>
<!-- TRANSL&#45;&gt;PUSH -->
<g id="edge166" class="edge"><title>TRANSL&#45;&gt;PUSH</title>
<path fill="none" stroke="black" d="M426.402,-290.589C423.254,-289.609 420.09,-288.725 417,-288 338.726,-269.637 110.948,-311.612 57,-252 46.2639,-240.137 48.2814,-229.416 57,-216 108.991,-135.998 418.248,-103.048 526.559,-93.8616"/>
<polygon fill="black" stroke="black" points="527.016,-97.3358 536.693,-93.0221 526.438,-90.3597 527.016,-97.3358"/>
</g>
<!-- TRANSL&#45;&gt;PULL -->
<g id="edge180" class="edge"><title>TRANSL&#45;&gt;PULL</title>
<path fill="none" stroke="black" d="M426.729,-292.701C408.39,-284.298 387.632,-271.16 377,-252 369.236,-238.01 368.026,-229.247 377,-216 409.323,-168.286 577.226,-119.99 652.921,-100.259"/>
<polygon fill="black" stroke="black" points="654.158,-103.555 662.966,-97.6674 652.409,-96.7765 654.158,-103.555"/>
</g>
<!-- TRANSL&#45;&gt;DELFIL -->
<g id="edge168" class="edge"><title>TRANSL&#45;&gt;DELFIL</title>
<path fill="none" stroke="black" d="M453.596,-287.697C449.725,-279.728 445.048,-270.1 440.757,-261.264"/>
<polygon fill="black" stroke="black" points="443.825,-259.57 436.308,-252.104 437.529,-262.629 443.825,-259.57"/>
</g>
<!-- TRANSL&#45;&gt;GEN -->
<g id="edge172" class="edge"><title>TRANSL&#45;&gt;GEN</title>
<path fill="none" stroke="black" d="M426.841,-290.971C423.542,-289.882 420.226,-288.869 417,-288 326.055,-263.497 295.831,-279.916 201.813,-251.762"/>
<polygon fill="black" stroke="black" points="202.791,-248.401 192.204,-248.798 200.728,-255.09 202.791,-248.401"/>
</g>
<!-- TRANSL&#45;&gt;GENOUT -->
<g id="edge178" class="edge"><title>TRANSL&#45;&gt;GENOUT</title>
<path fill="none" stroke="black" d="M426.65,-291.574C423.391,-290.358 420.136,-289.151 417,-288 372.264,-271.579 352.558,-282.57 316,-252 296.249,-235.484 282.541,-209.238 274.349,-189.518"/>
<polygon fill="black" stroke="black" points="277.586,-188.185 270.667,-180.161 271.072,-190.748 277.586,-188.185"/>
</g>
<!-- TRANSL&#45;&gt;COUNTR -->
<g id="edge176" class="edge"><title>TRANSL&#45;&gt;COUNTR</title>
<path fill="none" stroke="black" d="M426.872,-289.52C411.701,-280.845 395.505,-268.424 387,-252 379.643,-237.792 376.262,-227.861 387,-216 403.227,-198.076 745.562,-174.213 872.329,-165.958"/>
<polygon fill="black" stroke="black" points="872.745,-169.438 882.498,-165.299 872.292,-162.453 872.745,-169.438"/>
</g>
<!-- DEF -->
<g id="node138" class="node"><title>DEF</title>
<polygon fill="gold" stroke="black" points="120,-252 66,-252 66,-216 120,-216 120,-252"/>
<text text-anchor="middle" x="93" y="-228.4" font-family="Times,serif" font-size="14.00">DEF</text>
</g>
<!-- TRANSL&#45;&gt;DEF -->
<g id="edge174" class="edge"><title>TRANSL&#45;&gt;DEF</title>
<path fill="none" stroke="black" d="M426.878,-290.831C423.571,-289.77 420.243,-288.803 417,-288 294.966,-257.777 254.905,-286.457 130.097,-251.763"/>
<polygon fill="black" stroke="black" points="130.744,-248.308 120.167,-248.92 128.817,-255.037 130.744,-248.308"/>
</g>
<!-- INTEXT -->
<g id="node76" class="node"><title>INTEXT</title>
<polygon fill="gold" stroke="black" points="1609.91,-468 1544.09,-468 1544.09,-432 1609.91,-432 1609.91,-468"/>
<text text-anchor="middle" x="1577" y="-444.4" font-family="Times,serif" font-size="14.00">INTEXT</text>
</g>
<!-- INTEXT&#45;&gt;LABEL -->
<g id="edge96" class="edge"><title>INTEXT&#45;&gt;LABEL</title>
<path fill="none" stroke="black" d="M1595.2,-431.929C1604.52,-422.232 1615.29,-409.379 1622,-396 1643.83,-352.469 1652.98,-295.852 1656.67,-262.66"/>
<polygon fill="black" stroke="black" points="1660.19,-262.659 1657.72,-252.355 1653.22,-261.949 1660.19,-262.659"/>
</g>
<!-- KEYBRD -->
<g id="node78" class="node"><title>KEYBRD</title>
<polygon fill="gold" stroke="black" points="1613.17,-396 1540.83,-396 1540.83,-360 1613.17,-360 1613.17,-396"/>
<text text-anchor="middle" x="1577" y="-372.4" font-family="Times,serif" font-size="14.00">KEYBRD</text>
</g>
<!-- INTEXT&#45;&gt;KEYBRD -->
<g id="edge94" class="edge"><title>INTEXT&#45;&gt;KEYBRD</title>
<path fill="none" stroke="black" d="M1577,-431.697C1577,-423.983 1577,-414.712 1577,-406.112"/>
<polygon fill="black" stroke="black" points="1580.5,-406.104 1577,-396.104 1573.5,-406.104 1580.5,-406.104"/>
</g>
<!-- INZOOM -->
<g id="node80" class="node"><title>INZOOM</title>
<polygon fill="gold" stroke="black" points="1035.49,-468 964.505,-468 964.505,-432 1035.49,-432 1035.49,-468"/>
<text text-anchor="middle" x="1000" y="-444.4" font-family="Times,serif" font-size="14.00">INZOOM</text>
</g>
<!-- IDAS -->
<g id="node82" class="node"><title>IDAS</title>
<polygon fill="gold" stroke="black" points="953,-396 899,-396 899,-360 953,-360 953,-396"/>
<text text-anchor="middle" x="926" y="-372.4" font-family="Times,serif" font-size="14.00">IDAS</text>
</g>
<!-- INZOOM&#45;&gt;IDAS -->
<g id="edge98" class="edge"><title>INZOOM&#45;&gt;IDAS</title>
<path fill="none" stroke="black" d="M981.708,-431.697C972.567,-423.05 961.36,-412.449 951.4,-403.027"/>
<polygon fill="black" stroke="black" points="953.752,-400.434 944.082,-396.104 948.941,-405.519 953.752,-400.434"/>
</g>
<!-- ZOOM -->
<g id="node84" class="node"><title>ZOOM</title>
<polygon fill="gold" stroke="black" points="1028.41,-396 971.585,-396 971.585,-360 1028.41,-360 1028.41,-396"/>
<text text-anchor="middle" x="1000" y="-372.4" font-family="Times,serif" font-size="14.00">ZOOM</text>
</g>
<!-- INZOOM&#45;&gt;ZOOM -->
<g id="edge100" class="edge"><title>INZOOM&#45;&gt;ZOOM</title>
<path fill="none" stroke="black" d="M1000,-431.697C1000,-423.983 1000,-414.712 1000,-406.112"/>
<polygon fill="black" stroke="black" points="1003.5,-406.104 1000,-396.104 996.5,-406.104 1003.5,-406.104"/>
</g>
<!-- ZOOM&#45;&gt;DRAW -->
<g id="edge196" class="edge"><title>ZOOM&#45;&gt;DRAW</title>
<path fill="none" stroke="black" d="M1028.49,-369.641C1077.49,-356.985 1177.74,-331.089 1232.76,-316.877"/>
<polygon fill="black" stroke="black" points="1233.68,-320.255 1242.49,-314.365 1231.93,-313.478 1233.68,-320.255"/>
</g>
<!-- ZOOM&#45;&gt;PUSH -->
<g id="edge182" class="edge"><title>ZOOM&#45;&gt;PUSH</title>
<path fill="none" stroke="black" d="M991.817,-359.956C975.471,-327.578 935.767,-256.777 883,-216 794.723,-147.782 664.567,-112.427 601.282,-98.3984"/>
<polygon fill="black" stroke="black" points="601.867,-94.9441 591.353,-96.2518 600.388,-101.786 601.867,-94.9441"/>
</g>
<!-- ZOOM&#45;&gt;FREDIS -->
<g id="edge194" class="edge"><title>ZOOM&#45;&gt;FREDIS</title>
<path fill="none" stroke="black" d="M1000,-359.871C1000,-335.67 1000,-291.211 1000,-262.393"/>
<polygon fill="black" stroke="black" points="1003.5,-262.189 1000,-252.189 996.5,-262.189 1003.5,-262.189"/>
</g>
<!-- ZOOM&#45;&gt;PULL -->
<g id="edge184" class="edge"><title>ZOOM&#45;&gt;PULL</title>
<path fill="none" stroke="black" d="M1009.2,-359.728C1031.33,-315.605 1081.18,-198.404 1018,-144 974.948,-106.928 803.946,-95.5273 727.392,-92.2408"/>
<polygon fill="black" stroke="black" points="727.374,-88.7373 717.24,-91.8291 727.09,-95.7316 727.374,-88.7373"/>
</g>
<!-- ZOOM&#45;&gt;DUMPER -->
<g id="edge186" class="edge"><title>ZOOM&#45;&gt;DUMPER</title>
<path fill="none" stroke="black" d="M971.297,-363.044C968.206,-361.879 965.069,-360.831 962,-360 822.376,-322.183 777.074,-356.298 632.309,-323.944"/>
<polygon fill="black" stroke="black" points="632.701,-320.443 622.17,-321.607 631.129,-327.264 632.701,-320.443"/>
</g>
<!-- ZOOM&#45;&gt;FRETRE -->
<g id="edge188" class="edge"><title>ZOOM&#45;&gt;FRETRE</title>
<path fill="none" stroke="black" d="M971.649,-363.441C968.436,-362.168 965.175,-360.987 962,-360 917.207,-346.079 787.353,-324.69 718.337,-313.831"/>
<polygon fill="black" stroke="black" points="718.63,-310.335 708.209,-312.245 717.547,-317.25 718.63,-310.335"/>
</g>
<!-- LOADER -->
<g id="node94" class="node"><title>LOADER</title>
<polygon fill="gold" stroke="black" points="874.08,-324 801.92,-324 801.92,-288 874.08,-288 874.08,-324"/>
<text text-anchor="middle" x="838" y="-300.4" font-family="Times,serif" font-size="14.00">LOADER</text>
</g>
<!-- ZOOM&#45;&gt;LOADER -->
<g id="edge192" class="edge"><title>ZOOM&#45;&gt;LOADER</title>
<path fill="none" stroke="black" d="M971.389,-364.139C968.224,-362.735 965.046,-361.332 962,-360 936.078,-348.663 906.996,-336.218 883.515,-326.239"/>
<polygon fill="black" stroke="black" points="884.724,-322.95 874.152,-322.264 881.989,-329.393 884.724,-322.95"/>
</g>
<!-- RENAME -->
<g id="node101" class="node"><title>RENAME</title>
<polygon fill="gold" stroke="black" points="1886.33,-252 1811.67,-252 1811.67,-216 1886.33,-216 1886.33,-252"/>
<text text-anchor="middle" x="1849" y="-228.4" font-family="Times,serif" font-size="14.00">RENAME</text>
</g>
<!-- ZOOM&#45;&gt;RENAME -->
<g id="edge190" class="edge"><title>ZOOM&#45;&gt;RENAME</title>
<path fill="none" stroke="black" d="M1028.73,-372.194C1153.04,-351.404 1645.22,-269.083 1801.27,-242.983"/>
<polygon fill="black" stroke="black" points="1802.2,-246.376 1811.49,-241.275 1801.05,-239.472 1802.2,-246.376"/>
</g>
<!-- LOADER&#45;&gt;NEWNOD -->
<g id="edge112" class="edge"><title>LOADER&#45;&gt;NEWNOD</title>
<path fill="none" stroke="black" d="M837.258,-287.697C836.928,-279.983 836.531,-270.712 836.162,-262.112"/>
<polygon fill="black" stroke="black" points="839.658,-261.945 835.733,-252.104 832.665,-262.245 839.658,-261.945"/>
</g>
<!-- MAIN -->
<g id="node96" class="node"><title>MAIN</title>
<polygon fill="gold" stroke="black" points="1469,-540 1415,-540 1415,-504 1469,-504 1469,-540"/>
<text text-anchor="middle" x="1442" y="-516.4" font-family="Times,serif" font-size="14.00">MAIN</text>
</g>
<!-- MAIN&#45;&gt;ALLOC -->
<g id="edge122" class="edge"><title>MAIN&#45;&gt;ALLOC</title>
<path fill="none" stroke="black" d="M1448.25,-503.758C1460.32,-472.269 1489.38,-404.598 1531,-360 1591.31,-295.377 1643.39,-321.504 1698,-252 1712.24,-233.871 1720.2,-208.736 1724.47,-189.8"/>
<polygon fill="black" stroke="black" points="1727.9,-190.501 1726.49,-180.001 1721.05,-189.092 1727.9,-190.501"/>
</g>
<!-- MAIN&#45;&gt;DRAW -->
<g id="edge128" class="edge"><title>MAIN&#45;&gt;DRAW</title>
<path fill="none" stroke="black" d="M1428.3,-503.849C1398.22,-466.206 1326.3,-376.201 1291.1,-332.151"/>
<polygon fill="black" stroke="black" points="1293.75,-329.86 1284.77,-324.232 1288.28,-334.23 1293.75,-329.86"/>
</g>
<!-- MAIN&#45;&gt;PUSH -->
<g id="edge116" class="edge"><title>MAIN&#45;&gt;PUSH</title>
<path fill="none" stroke="black" d="M1414.8,-521.271C1216.42,-522.901 0,-526.869 0,-379 0,-379 0,-379 0,-233 0,-173.17 46.3246,-168.295 101,-144 177.164,-110.156 430.616,-96.4593 526.665,-92.4014"/>
<polygon fill="black" stroke="black" points="526.938,-95.8932 536.786,-91.9851 526.651,-88.8992 526.938,-95.8932"/>
</g>
<!-- MAIN&#45;&gt;DIM -->
<g id="edge124" class="edge"><title>MAIN&#45;&gt;DIM</title>
<path fill="none" stroke="black" d="M1414.83,-520.497C1238,-516.951 255.39,-492.941 170,-396 138.273,-359.981 149.088,-331.205 170,-288 176.72,-274.116 189.037,-262.766 201.296,-254.182"/>
<polygon fill="black" stroke="black" points="203.249,-257.086 209.703,-248.684 199.418,-251.228 203.249,-257.086"/>
</g>
<!-- MAIN&#45;&gt;NPLOT -->
<g id="edge126" class="edge"><title>MAIN&#45;&gt;NPLOT</title>
<path fill="none" stroke="black" d="M1469.27,-519.909C1580.25,-514.743 1992,-488.219 1992,-379 1992,-379 1992,-379 1992,-305 1992,-264.553 1997.21,-254.023 2011,-216 2017.17,-198.993 2025.65,-197.561 2030,-180 2033.85,-164.469 2040.03,-156.465 2030,-144 2005.21,-113.195 1891.2,-99.3003 1828.91,-93.9154"/>
<polygon fill="black" stroke="black" points="1828.9,-90.4028 1818.65,-93.0647 1828.33,-97.3789 1828.9,-90.4028"/>
</g>
<!-- MAIN&#45;&gt;INCMND -->
<g id="edge136" class="edge"><title>MAIN&#45;&gt;INCMND</title>
<path fill="none" stroke="black" d="M1414.8,-521.597C1328.95,-522.85 1056.58,-521.998 840,-468 778.562,-452.682 711.941,-421.776 670.584,-400.731"/>
<polygon fill="black" stroke="black" points="672.141,-397.596 661.647,-396.137 668.94,-403.822 672.141,-397.596"/>
</g>
<!-- MAIN&#45;&gt;INTEXT -->
<g id="edge134" class="edge"><title>MAIN&#45;&gt;INTEXT</title>
<path fill="none" stroke="black" d="M1469.32,-506.834C1488.2,-497.047 1513.66,-483.841 1535.09,-472.73"/>
<polygon fill="black" stroke="black" points="1536.73,-475.823 1544,-468.113 1533.51,-469.609 1536.73,-475.823"/>
</g>
<!-- MAIN&#45;&gt;INZOOM -->
<g id="edge132" class="edge"><title>MAIN&#45;&gt;INZOOM</title>
<path fill="none" stroke="black" d="M1414.68,-516.674C1340.92,-504.992 1137.13,-472.717 1045.57,-458.218"/>
<polygon fill="black" stroke="black" points="1045.93,-454.73 1035.5,-456.623 1044.83,-461.644 1045.93,-454.73"/>
</g>
<!-- MAIN&#45;&gt;LOADER -->
<g id="edge120" class="edge"><title>MAIN&#45;&gt;LOADER</title>
<path fill="none" stroke="black" d="M1414.79,-520.558C1324.58,-518.709 1036.41,-509.603 955,-468 899.501,-439.639 864.124,-371.312 848.067,-333.421"/>
<polygon fill="black" stroke="black" points="851.255,-331.968 844.225,-324.042 844.777,-334.622 851.255,-331.968"/>
</g>
<!-- SETUP -->
<g id="node98" class="node"><title>SETUP</title>
<polygon fill="gold" stroke="black" points="1842.09,-468 1783.91,-468 1783.91,-432 1842.09,-432 1842.09,-468"/>
<text text-anchor="middle" x="1813" y="-444.4" font-family="Times,serif" font-size="14.00">SETUP</text>
</g>
<!-- MAIN&#45;&gt;SETUP -->
<g id="edge114" class="edge"><title>MAIN&#45;&gt;SETUP</title>
<path fill="none" stroke="black" d="M1469.21,-518.612C1525.95,-513.196 1660.71,-498.052 1770,-468 1771.26,-467.653 1772.54,-467.281 1773.82,-466.889"/>
<polygon fill="black" stroke="black" points="1775.32,-470.076 1783.68,-463.562 1773.08,-463.444 1775.32,-470.076"/>
</g>
<!-- MAIN&#45;&gt;RENAME -->
<g id="edge118" class="edge"><title>MAIN&#45;&gt;RENAME</title>
<path fill="none" stroke="black" d="M1469.19,-517.18C1505.47,-511.154 1570.76,-497.011 1619,-468 1712.78,-411.608 1795.58,-308.262 1830.88,-260.475"/>
<polygon fill="black" stroke="black" points="1833.84,-262.361 1836.91,-252.222 1828.19,-258.231 1833.84,-262.361"/>
</g>
<!-- TRACKR -->
<g id="node108" class="node"><title>TRACKR</title>
<polygon fill="gold" stroke="black" points="2092.09,-324 2019.91,-324 2019.91,-288 2092.09,-288 2092.09,-324"/>
<text text-anchor="middle" x="2056" y="-300.4" font-family="Times,serif" font-size="14.00">TRACKR</text>
</g>
<!-- MAIN&#45;&gt;TRACKR -->
<g id="edge130" class="edge"><title>MAIN&#45;&gt;TRACKR</title>
<path fill="none" stroke="black" d="M1469.1,-520.196C1575.9,-516.794 1963.9,-502.161 2006,-468 2046.06,-435.493 2054.66,-371.423 2056.13,-334.666"/>
<polygon fill="black" stroke="black" points="2059.64,-334.282 2056.38,-324.2 2052.64,-334.112 2059.64,-334.282"/>
</g>
<!-- RENAME&#45;&gt;ALLOC -->
<g id="edge144" class="edge"><title>RENAME&#45;&gt;ALLOC</title>
<path fill="none" stroke="black" d="M1819.64,-215.876C1803.95,-206.724 1784.44,-195.342 1767.55,-185.485"/>
<polygon fill="black" stroke="black" points="1768.87,-182.205 1758.47,-180.19 1765.34,-188.252 1768.87,-182.205"/>
</g>
<!-- RENAME&#45;&gt;SEG -->
<g id="edge146" class="edge"><title>RENAME&#45;&gt;SEG</title>
<path fill="none" stroke="black" d="M1867.83,-215.666C1886.43,-196.463 1909.62,-165.392 1891,-144 1868.59,-118.26 1639.06,-99.8349 1547.46,-93.4539"/>
<polygon fill="black" stroke="black" points="1547.46,-89.9461 1537.25,-92.7529 1546.98,-96.9297 1547.46,-89.9461"/>
</g>
<!-- RENAME&#45;&gt;NPLOT -->
<g id="edge148" class="edge"><title>RENAME&#45;&gt;NPLOT</title>
<path fill="none" stroke="black" d="M1886.52,-227.439C1945.76,-217.09 2050.61,-191.493 2013,-144 1990.44,-115.507 1887.17,-100.801 1828.69,-94.6371"/>
<polygon fill="black" stroke="black" points="1828.97,-91.1477 1818.67,-93.618 1828.27,-98.1118 1828.97,-91.1477"/>
</g>
<!-- RENAME&#45;&gt;STRING -->
<g id="edge150" class="edge"><title>RENAME&#45;&gt;STRING</title>
<path fill="none" stroke="black" d="M1849,-215.697C1849,-207.983 1849,-198.712 1849,-190.112"/>
<polygon fill="black" stroke="black" points="1852.5,-190.104 1849,-180.104 1845.5,-190.104 1852.5,-190.104"/>
</g>
<!-- ASSIGN -->
<g id="node116" class="node"><title>ASSIGN</title>
<polygon fill="gold" stroke="black" points="2003.93,-180 1938.07,-180 1938.07,-144 2003.93,-144 2003.93,-180"/>
<text text-anchor="middle" x="1971" y="-156.4" font-family="Times,serif" font-size="14.00">ASSIGN</text>
</g>
<!-- RENAME&#45;&gt;ASSIGN -->
<g id="edge142" class="edge"><title>RENAME&#45;&gt;ASSIGN</title>
<path fill="none" stroke="black" d="M1878.84,-215.876C1894.94,-206.639 1915,-195.131 1932.29,-185.212"/>
<polygon fill="black" stroke="black" points="1934.11,-188.202 1941.04,-180.19 1930.63,-182.131 1934.11,-188.202"/>
</g>
<!-- TRACKR&#45;&gt;ALLOC -->
<g id="edge154" class="edge"><title>TRACKR&#45;&gt;ALLOC</title>
<path fill="none" stroke="black" d="M2019.6,-304.841C1967.67,-303.049 1870.96,-293.787 1802,-252 1776.66,-236.643 1756.18,-209.214 1743.43,-188.852"/>
<polygon fill="black" stroke="black" points="1746.29,-186.818 1738.13,-180.063 1740.3,-190.433 1746.29,-186.818"/>
</g>
<!-- TRACKR&#45;&gt;BOX -->
<g id="edge164" class="edge"><title>TRACKR&#45;&gt;BOX</title>
<path fill="none" stroke="black" d="M2019.8,-303.069C1918.81,-297.485 1625.47,-279.913 1383,-252 1357.98,-249.12 1329.97,-244.868 1308.22,-241.337"/>
<polygon fill="black" stroke="black" points="1308.52,-237.839 1298.09,-239.671 1307.38,-244.747 1308.52,-237.839"/>
</g>
<!-- CIRCLE -->
<g id="node125" class="node"><title>CIRCLE</title>
<polygon fill="gold" stroke="black" points="2085.34,-252 2020.66,-252 2020.66,-216 2085.34,-216 2085.34,-252"/>
<text text-anchor="middle" x="2053" y="-228.4" font-family="Times,serif" font-size="14.00">CIRCLE</text>
</g>
<!-- TRACKR&#45;&gt;CIRCLE -->
<g id="edge156" class="edge"><title>TRACKR&#45;&gt;CIRCLE</title>
<path fill="none" stroke="black" d="M2055.26,-287.697C2054.93,-279.983 2054.53,-270.712 2054.16,-262.112"/>
<polygon fill="black" stroke="black" points="2057.66,-261.945 2053.73,-252.104 2050.66,-262.245 2057.66,-261.945"/>
</g>
<!-- MOUSE -->
<g id="node127" class="node"><title>MOUSE</title>
<polygon fill="gold" stroke="black" points="2168.26,-252 2103.74,-252 2103.74,-216 2168.26,-216 2168.26,-252"/>
<text text-anchor="middle" x="2136" y="-228.4" font-family="Times,serif" font-size="14.00">MOUSE</text>
</g>
<!-- TRACKR&#45;&gt;MOUSE -->
<g id="edge158" class="edge"><title>TRACKR&#45;&gt;MOUSE</title>
<path fill="none" stroke="black" d="M2075.78,-287.697C2085.75,-278.965 2098.01,-268.24 2108.86,-258.75"/>
<polygon fill="black" stroke="black" points="2111.23,-261.323 2116.45,-252.104 2106.62,-256.055 2111.23,-261.323"/>
</g>
<!-- MOVE -->
<g id="node129" class="node"><title>MOVE</title>
<polygon fill="gold" stroke="black" points="2243.41,-252 2186.59,-252 2186.59,-216 2243.41,-216 2243.41,-252"/>
<text text-anchor="middle" x="2215" y="-228.4" font-family="Times,serif" font-size="14.00">MOVE</text>
</g>
<!-- TRACKR&#45;&gt;MOVE -->
<g id="edge160" class="edge"><title>TRACKR&#45;&gt;MOVE</title>
<path fill="none" stroke="black" d="M2092.3,-289.188C2116.35,-278.69 2148.58,-264.579 2177,-252 2177.1,-251.958 2177.19,-251.916 2177.29,-251.874"/>
<polygon fill="black" stroke="black" points="2178.66,-255.093 2186.38,-247.834 2175.82,-248.696 2178.66,-255.093"/>
</g>
<!-- BLANK -->
<g id="node131" class="node"><title>BLANK</title>
<polygon fill="gold" stroke="black" points="2326.17,-252 2261.83,-252 2261.83,-216 2326.17,-216 2326.17,-252"/>
<text text-anchor="middle" x="2294" y="-228.4" font-family="Times,serif" font-size="14.00">BLANK</text>
</g>
<!-- TRACKR&#45;&gt;BLANK -->
<g id="edge162" class="edge"><title>TRACKR&#45;&gt;BLANK</title>
<path fill="none" stroke="black" d="M2092.15,-296.61C2131.78,-287.094 2197.04,-270.48 2252,-252 2252.1,-251.967 2252.2,-251.934 2252.29,-251.901"/>
<polygon fill="black" stroke="black" points="2253.35,-255.239 2261.59,-248.57 2250.99,-248.65 2253.35,-255.239"/>
</g>
</g>
</svg>
