<?xml version="1.0" encoding="UTF-8" standalone="no"?>
<!DOCTYPE svg PUBLIC "-//W3C//DTD SVG 1.1//EN"
 "http://www.w3.org/Graphics/SVG/1.1/DTD/svg11.dtd">
<!-- Generated by graphviz version 2.28.0 (20110509.1545)
 -->
<!-- Title: calls Pages: 1 -->
<svg width="2239pt" height="188pt"
 viewBox="0.00 0.00 2239.00 188.00" xmlns="http://www.w3.org/2000/svg" xmlns:xlink="http://www.w3.org/1999/xlink">
<g id="graph1" class="graph" transform="scale(1 1) rotate(0) translate(4 184)">
<title>calls</title>
<polygon fill="white" stroke="white" points="-4,5 -4,-184 2236,-184 2236,5 -4,5"/>
<!-- /SEGS/ -->
<g id="node1" class="node"><title>/SEGS/</title>
<polygon fill="gold" stroke="black" points="136.01,-108 77.9897,-108 77.9897,-72 136.01,-72 136.01,-108"/>
<text text-anchor="middle" x="107" y="-84.4" font-family="Times,serif" font-size="14.00">/SEGS/</text>
</g>
<!-- ALLOC -->
<g id="node3" class="node"><title>ALLOC</title>
<polygon fill="gold" stroke="black" points="61.9984,-36 0.00162408,-36 0.00162408,-0 61.9984,-0 61.9984,-36"/>
<text text-anchor="middle" x="31" y="-12.4" font-family="Times,serif" font-size="14.00">ALLOC</text>
</g>
<!-- /SEGS/&#45;&gt;ALLOC -->
<g id="edge2" class="edge"><title>/SEGS/&#45;&gt;ALLOC</title>
<path fill="none" stroke="black" d="M88.2135,-71.6966C78.826,-63.0503 67.3156,-52.4486 57.0865,-43.027"/>
<polygon fill="black" stroke="black" points="59.2971,-40.3047 49.5704,-36.1043 54.5547,-45.4535 59.2971,-40.3047"/>
</g>
<!-- FREE -->
<g id="node34" class="node"><title>FREE</title>
<polygon fill="gold" stroke="black" points="134,-36 80,-36 80,-0 134,-0 134,-36"/>
<text text-anchor="middle" x="107" y="-12.4" font-family="Times,serif" font-size="14.00">FREE</text>
</g>
<!-- /SEGS/&#45;&gt;FREE -->
<g id="edge36" class="edge"><title>/SEGS/&#45;&gt;FREE</title>
<path fill="none" stroke="black" d="M107,-71.6966C107,-63.9827 107,-54.7125 107,-46.1124"/>
<polygon fill="black" stroke="black" points="110.5,-46.1043 107,-36.1043 103.5,-46.1044 110.5,-46.1043"/>
</g>
<!-- BLKDATA -->
<g id="node4" class="node"><title>BLKDATA</title>
<polygon fill="gold" stroke="black" points="1328.16,-180 1247.84,-180 1247.84,-144 1328.16,-144 1328.16,-180"/>
<text text-anchor="middle" x="1288" y="-156.4" font-family="Times,serif" font-size="14.00">BLKDATA</text>
</g>
<!-- BLKDATA&#45;&gt;/SEGS/ -->
<g id="edge8" class="edge"><title>BLKDATA&#45;&gt;/SEGS/</title>
<path fill="none" stroke="black" d="M1247.64,-161.561C1102.81,-163.046 596.036,-163.678 183,-108 170.875,-106.365 157.825,-103.762 146.02,-101.08"/>
<polygon fill="black" stroke="black" points="146.557,-97.6103 136.021,-98.7239 144.952,-104.424 146.557,-97.6103"/>
</g>
<!-- /DATA/ -->
<g id="node6" class="node"><title>/DATA/</title>
<polygon fill="gold" stroke="black" points="1146.5,-108 1087.5,-108 1087.5,-72 1146.5,-72 1146.5,-108"/>
<text text-anchor="middle" x="1117" y="-84.4" font-family="Times,serif" font-size="14.00">/DATA/</text>
</g>
<!-- BLKDATA&#45;&gt;/DATA/ -->
<g id="edge4" class="edge"><title>BLKDATA&#45;&gt;/DATA/</title>
<path fill="none" stroke="black" d="M1247.91,-144.588C1220.18,-133.238 1183.48,-118.213 1155.99,-106.961"/>
<polygon fill="black" stroke="black" points="1157.26,-103.701 1146.68,-103.151 1154.61,-110.179 1157.26,-103.701"/>
</g>
<!-- /STACK/ -->
<g id="node8" class="node"><title>/STACK/</title>
<polygon fill="gold" stroke="black" points="2086.92,-108 2019.08,-108 2019.08,-72 2086.92,-72 2086.92,-108"/>
<text text-anchor="middle" x="2053" y="-84.4" font-family="Times,serif" font-size="14.00">/STACK/</text>
</g>
<!-- BLKDATA&#45;&gt;/STACK/ -->
<g id="edge6" class="edge"><title>BLKDATA&#45;&gt;/STACK/</title>
<path fill="none" stroke="black" d="M1328.33,-158.467C1429.75,-151.924 1703.61,-133.194 1931,-108 1956.81,-105.141 1985.57,-101.17 2008.69,-97.7853"/>
<polygon fill="black" stroke="black" points="2009.5,-101.203 2018.88,-96.2774 2008.48,-94.2786 2009.5,-101.203"/>
</g>
<!-- /FILE/ -->
<g id="node11" class="node"><title>/FILE/</title>
<polygon fill="gold" stroke="black" points="1528,-108 1474,-108 1474,-72 1528,-72 1528,-108"/>
<text text-anchor="middle" x="1501" y="-84.4" font-family="Times,serif" font-size="14.00">/FILE/</text>
</g>
<!-- BLKDATA&#45;&gt;/FILE/ -->
<g id="edge10" class="edge"><title>BLKDATA&#45;&gt;/FILE/</title>
<path fill="none" stroke="black" d="M1328.06,-147.834C1367.22,-134.964 1426.34,-115.536 1464.3,-103.06"/>
<polygon fill="black" stroke="black" points="1465.54,-106.338 1473.95,-99.8911 1463.35,-99.6882 1465.54,-106.338"/>
</g>
<!-- BOX -->
<g id="node13" class="node"><title>BOX</title>
<polygon fill="gold" stroke="black" points="356,-36 302,-36 302,-0 356,-0 356,-36"/>
<text text-anchor="middle" x="329" y="-12.4" font-family="Times,serif" font-size="14.00">BOX</text>
</g>
<!-- /DATA/&#45;&gt;BOX -->
<g id="edge12" class="edge"><title>/DATA/&#45;&gt;BOX</title>
<path fill="none" stroke="black" d="M1087.35,-88.3697C968.38,-85.6217 524.866,-73.2201 366.157,-35.5979"/>
<polygon fill="black" stroke="black" points="366.673,-32.1188 356.122,-33.0831 364.971,-38.9089 366.673,-32.1188"/>
</g>
<!-- COUNTR -->
<g id="node15" class="node"><title>COUNTR</title>
<polygon fill="gold" stroke="black" points="447.173,-36 374.827,-36 374.827,-0 447.173,-0 447.173,-36"/>
<text text-anchor="middle" x="411" y="-12.4" font-family="Times,serif" font-size="14.00">COUNTR</text>
</g>
<!-- /DATA/&#45;&gt;COUNTR -->
<g id="edge14" class="edge"><title>/DATA/&#45;&gt;COUNTR</title>
<path fill="none" stroke="black" d="M1087.3,-89.4828C994.762,-90.389 703.636,-88.7147 457.238,-35.627"/>
<polygon fill="black" stroke="black" points="457.904,-32.19 447.387,-33.4717 456.408,-39.0283 457.904,-32.19"/>
</g>
<!-- DRAW -->
<g id="node17" class="node"><title>DRAW</title>
<polygon fill="gold" stroke="black" points="209.247,-36 152.753,-36 152.753,-0 209.247,-0 209.247,-36"/>
<text text-anchor="middle" x="181" y="-12.4" font-family="Times,serif" font-size="14.00">DRAW</text>
</g>
<!-- /DATA/&#45;&gt;DRAW -->
<g id="edge16" class="edge"><title>/DATA/&#45;&gt;DRAW</title>
<path fill="none" stroke="black" d="M1087.29,-88.6814C953.898,-87.0357 408.923,-77.9648 219.486,-35.4277"/>
<polygon fill="black" stroke="black" points="220.199,-32 209.663,-33.1121 218.593,-38.8133 220.199,-32"/>
</g>
<!-- DUMP -->
<g id="node21" class="node"><title>DUMP</title>
<polygon fill="gold" stroke="black" points="1997.34,-36 1940.66,-36 1940.66,-0 1997.34,-0 1997.34,-36"/>
<text text-anchor="middle" x="1969" y="-12.4" font-family="Times,serif" font-size="14.00">DUMP</text>
</g>
<!-- /DATA/&#45;&gt;DUMP -->
<g id="edge20" class="edge"><title>/DATA/&#45;&gt;DUMP</title>
<path fill="none" stroke="black" d="M1146.79,-87.3573C1288.84,-79.4856 1892.21,-45.6096 1931,-36 1931.1,-35.975 1931.2,-35.9498 1931.3,-35.9243"/>
<polygon fill="black" stroke="black" points="1932.27,-39.288 1940.75,-32.9368 1930.16,-32.6135 1932.27,-39.288"/>
</g>
<!-- DUMPER -->
<g id="node27" class="node"><title>DUMPER</title>
<polygon fill="gold" stroke="black" points="540.259,-36 465.741,-36 465.741,-0 540.259,-0 540.259,-36"/>
<text text-anchor="middle" x="503" y="-12.4" font-family="Times,serif" font-size="14.00">DUMPER</text>
</g>
<!-- /DATA/&#45;&gt;DUMPER -->
<g id="edge28" class="edge"><title>/DATA/&#45;&gt;DUMPER</title>
<path fill="none" stroke="black" d="M1087.31,-88.939C1003.63,-88.1997 758.894,-82.1313 550.075,-35.8893"/>
<polygon fill="black" stroke="black" points="550.684,-32.4388 540.159,-33.6568 549.146,-39.2679 550.684,-32.4388"/>
</g>
<!-- FORM -->
<g id="node29" class="node"><title>FORM</title>
<polygon fill="gold" stroke="black" points="283.265,-36 228.735,-36 228.735,-0 283.265,-0 283.265,-36"/>
<text text-anchor="middle" x="256" y="-12.4" font-family="Times,serif" font-size="14.00">FORM</text>
</g>
<!-- /DATA/&#45;&gt;FORM -->
<g id="edge30" class="edge"><title>/DATA/&#45;&gt;FORM</title>
<path fill="none" stroke="black" d="M1087.18,-88.5367C960.663,-86.3527 467.262,-75.5728 293.249,-35.3203"/>
<polygon fill="black" stroke="black" points="294.025,-31.9071 283.481,-32.9426 292.369,-38.7085 294.025,-31.9071"/>
</g>
<!-- FREDIS -->
<g id="node32" class="node"><title>FREDIS</title>
<polygon fill="gold" stroke="black" points="622.176,-36 557.824,-36 557.824,-0 622.176,-0 622.176,-36"/>
<text text-anchor="middle" x="590" y="-12.4" font-family="Times,serif" font-size="14.00">FREDIS</text>
</g>
<!-- /DATA/&#45;&gt;FREDIS -->
<g id="edge34" class="edge"><title>/DATA/&#45;&gt;FREDIS</title>
<path fill="none" stroke="black" d="M1087.45,-88.6806C1012.25,-87.26 807.739,-79.5864 632.305,-35.9216"/>
<polygon fill="black" stroke="black" points="632.941,-32.4721 622.387,-33.4063 631.22,-39.2573 632.941,-32.4721"/>
</g>
<!-- FRENOD -->
<g id="node36" class="node"><title>FRENOD</title>
<polygon fill="gold" stroke="black" points="712.005,-36 639.995,-36 639.995,-0 712.005,-0 712.005,-36"/>
<text text-anchor="middle" x="676" y="-12.4" font-family="Times,serif" font-size="14.00">FRENOD</text>
</g>
<!-- /DATA/&#45;&gt;FRENOD -->
<g id="edge38" class="edge"><title>/DATA/&#45;&gt;FRENOD</title>
<path fill="none" stroke="black" d="M1087.25,-87.3412C1022.28,-83.2274 862.881,-70.4675 722.216,-35.9776"/>
<polygon fill="black" stroke="black" points="722.672,-32.4841 712.122,-33.4566 720.976,-39.2755 722.672,-32.4841"/>
</g>
<!-- FRETRE -->
<g id="node38" class="node"><title>FRETRE</title>
<polygon fill="gold" stroke="black" points="798.088,-36 729.912,-36 729.912,-0 798.088,-0 798.088,-36"/>
<text text-anchor="middle" x="764" y="-12.4" font-family="Times,serif" font-size="14.00">FRETRE</text>
</g>
<!-- /DATA/&#45;&gt;FRETRE -->
<g id="edge40" class="edge"><title>/DATA/&#45;&gt;FRETRE</title>
<path fill="none" stroke="black" d="M1087.49,-86.0168C1033.48,-80.1186 915.154,-65.1669 807.742,-35.889"/>
<polygon fill="black" stroke="black" points="808.62,-32.5005 798.048,-33.1988 806.748,-39.2456 808.62,-32.5005"/>
</g>
<!-- GENOUT -->
<g id="node40" class="node"><title>GENOUT</title>
<polygon fill="gold" stroke="black" points="889.162,-36 816.838,-36 816.838,-0 889.162,-0 889.162,-36"/>
<text text-anchor="middle" x="853" y="-12.4" font-family="Times,serif" font-size="14.00">GENOUT</text>
</g>
<!-- /DATA/&#45;&gt;GENOUT -->
<g id="edge42" class="edge"><title>/DATA/&#45;&gt;GENOUT</title>
<path fill="none" stroke="black" d="M1087.28,-83.03C1046.69,-74.612 971.54,-58.0899 898.971,-36.1145"/>
<polygon fill="black" stroke="black" points="899.802,-32.7086 889.216,-33.1218 897.749,-39.4008 899.802,-32.7086"/>
</g>
<!-- INCMND -->
<g id="node42" class="node"><title>INCMND</title>
<polygon fill="gold" stroke="black" points="1746.09,-36 1673.91,-36 1673.91,-0 1746.09,-0 1746.09,-36"/>
<text text-anchor="middle" x="1710" y="-12.4" font-family="Times,serif" font-size="14.00">INCMND</text>
</g>
<!-- /DATA/&#45;&gt;INCMND -->
<g id="edge44" class="edge"><title>/DATA/&#45;&gt;INCMND</title>
<path fill="none" stroke="black" d="M1146.78,-88.7888C1229.78,-87.6306 1470.33,-80.3862 1664,-36 1664.1,-35.9768 1664.2,-35.9535 1664.3,-35.93"/>
<polygon fill="black" stroke="black" points="1665.12,-39.3351 1673.85,-33.3376 1663.29,-32.5795 1665.12,-39.3351"/>
</g>
<!-- INTEXT -->
<g id="node45" class="node"><title>INTEXT</title>
<polygon fill="gold" stroke="black" points="1830.91,-36 1765.09,-36 1765.09,-0 1830.91,-0 1830.91,-36"/>
<text text-anchor="middle" x="1798" y="-12.4" font-family="Times,serif" font-size="14.00">INTEXT</text>
</g>
<!-- /DATA/&#45;&gt;INTEXT -->
<g id="edge48" class="edge"><title>/DATA/&#45;&gt;INTEXT</title>
<path fill="none" stroke="black" d="M1146.82,-87.6838C1256.46,-82.6655 1636.9,-63.6137 1755,-36 1755.1,-35.976 1755.21,-35.9518 1755.31,-35.9274"/>
<polygon fill="black" stroke="black" points="1756.32,-39.2786 1764.97,-33.1682 1754.4,-32.5474 1756.32,-39.2786"/>
</g>
<!-- LABEL -->
<g id="node50" class="node"><title>LABEL</title>
<polygon fill="gold" stroke="black" points="968.327,-36 907.673,-36 907.673,-0 968.327,-0 968.327,-36"/>
<text text-anchor="middle" x="938" y="-12.4" font-family="Times,serif" font-size="14.00">LABEL</text>
</g>
<!-- /DATA/&#45;&gt;LABEL -->
<g id="edge54" class="edge"><title>/DATA/&#45;&gt;LABEL</title>
<path fill="none" stroke="black" d="M1087.32,-78.051C1059.09,-67.551 1015.49,-51.1075 978,-36 977.904,-35.9612 977.807,-35.9224 977.711,-35.8834"/>
<polygon fill="black" stroke="black" points="979.106,-32.6727 968.526,-32.1129 976.448,-39.1483 979.106,-32.6727"/>
</g>
<!-- LOADER -->
<g id="node52" class="node"><title>LOADER</title>
<polygon fill="gold" stroke="black" points="1415.08,-36 1342.92,-36 1342.92,-0 1415.08,-0 1415.08,-36"/>
<text text-anchor="middle" x="1379" y="-12.4" font-family="Times,serif" font-size="14.00">LOADER</text>
</g>
<!-- /DATA/&#45;&gt;LOADER -->
<g id="edge56" class="edge"><title>/DATA/&#45;&gt;LOADER</title>
<path fill="none" stroke="black" d="M1146.64,-82.845C1188.53,-73.8926 1267.29,-56.1342 1333,-36 1333.1,-35.9696 1333.2,-35.9391 1333.3,-35.9085"/>
<polygon fill="black" stroke="black" points="1334.3,-39.2644 1342.72,-32.8398 1332.13,-32.6084 1334.3,-39.2644"/>
</g>
<!-- MAIN -->
<g id="node55" class="node"><title>MAIN</title>
<polygon fill="gold" stroke="black" points="1487,-36 1433,-36 1433,-0 1487,-0 1487,-36"/>
<text text-anchor="middle" x="1460" y="-12.4" font-family="Times,serif" font-size="14.00">MAIN</text>
</g>
<!-- /DATA/&#45;&gt;MAIN -->
<g id="edge60" class="edge"><title>/DATA/&#45;&gt;MAIN</title>
<path fill="none" stroke="black" d="M1146.84,-86.5454C1200.76,-81.54 1317.86,-68.0587 1422.98,-35.8522"/>
<polygon fill="black" stroke="black" points="1424.29,-39.1094 1432.79,-32.7808 1422.2,-32.4293 1424.29,-39.1094"/>
</g>
<!-- NEWNOD -->
<g id="node58" class="node"><title>NEWNOD</title>
<polygon fill="gold" stroke="black" points="1065.16,-36 986.845,-36 986.845,-0 1065.16,-0 1065.16,-36"/>
<text text-anchor="middle" x="1026" y="-12.4" font-family="Times,serif" font-size="14.00">NEWNOD</text>
</g>
<!-- /DATA/&#45;&gt;NEWNOD -->
<g id="edge64" class="edge"><title>/DATA/&#45;&gt;NEWNOD</title>
<path fill="none" stroke="black" d="M1094.51,-71.6966C1083.04,-62.8807 1068.94,-52.0321 1056.52,-42.4742"/>
<polygon fill="black" stroke="black" points="1058.3,-39.4273 1048.24,-36.1043 1054.03,-44.9757 1058.3,-39.4273"/>
</g>
<!-- REFREP -->
<g id="node64" class="node"><title>REFREP</title>
<polygon fill="gold" stroke="black" points="1150.51,-36 1083.49,-36 1083.49,-0 1150.51,-0 1150.51,-36"/>
<text text-anchor="middle" x="1117" y="-12.4" font-family="Times,serif" font-size="14.00">REFREP</text>
</g>
<!-- /DATA/&#45;&gt;REFREP -->
<g id="edge70" class="edge"><title>/DATA/&#45;&gt;REFREP</title>
<path fill="none" stroke="black" d="M1117,-71.6966C1117,-63.9827 1117,-54.7125 1117,-46.1124"/>
<polygon fill="black" stroke="black" points="1120.5,-46.1043 1117,-36.1043 1113.5,-46.1044 1120.5,-46.1043"/>
</g>
<!-- RENAME -->
<g id="node66" class="node"><title>RENAME</title>
<polygon fill="gold" stroke="black" points="1580.33,-36 1505.67,-36 1505.67,-0 1580.33,-0 1580.33,-36"/>
<text text-anchor="middle" x="1543" y="-12.4" font-family="Times,serif" font-size="14.00">RENAME</text>
</g>
<!-- /DATA/&#45;&gt;RENAME -->
<g id="edge72" class="edge"><title>/DATA/&#45;&gt;RENAME</title>
<path fill="none" stroke="black" d="M1146.89,-86.9455C1209.85,-82.1672 1360.71,-68.3501 1495.42,-35.8189"/>
<polygon fill="black" stroke="black" points="1496.63,-39.1268 1505.5,-33.3413 1494.96,-32.329 1496.63,-39.1268"/>
</g>
<!-- SETALL -->
<g id="node69" class="node"><title>SETALL</title>
<polygon fill="gold" stroke="black" points="1235.24,-36 1168.76,-36 1168.76,-0 1235.24,-0 1235.24,-36"/>
<text text-anchor="middle" x="1202" y="-12.4" font-family="Times,serif" font-size="14.00">SETALL</text>
</g>
<!-- /DATA/&#45;&gt;SETALL -->
<g id="edge76" class="edge"><title>/DATA/&#45;&gt;SETALL</title>
<path fill="none" stroke="black" d="M1138.01,-71.6966C1148.72,-62.8807 1161.89,-52.0321 1173.5,-42.4742"/>
<polygon fill="black" stroke="black" points="1175.74,-45.1632 1181.23,-36.1043 1171.29,-39.7597 1175.74,-45.1632"/>
</g>
<!-- TRACKR -->
<g id="node71" class="node"><title>TRACKR</title>
<polygon fill="gold" stroke="black" points="1922.09,-36 1849.91,-36 1849.91,-0 1922.09,-0 1922.09,-36"/>
<text text-anchor="middle" x="1886" y="-12.4" font-family="Times,serif" font-size="14.00">TRACKR</text>
</g>
<!-- /DATA/&#45;&gt;TRACKR -->
<g id="edge78" class="edge"><title>/DATA/&#45;&gt;TRACKR</title>
<path fill="none" stroke="black" d="M1146.53,-87.3264C1273.71,-80.051 1771.43,-50.8727 1840,-36 1840.1,-35.978 1840.2,-35.9558 1840.3,-35.9335"/>
<polygon fill="black" stroke="black" points="1841.09,-39.3459 1849.87,-33.4194 1839.31,-32.5757 1841.09,-39.3459"/>
</g>
<!-- TRANSL -->
<g id="node74" class="node"><title>TRANSL</title>
<polygon fill="gold" stroke="black" points="1324.34,-36 1253.66,-36 1253.66,-0 1324.34,-0 1324.34,-36"/>
<text text-anchor="middle" x="1289" y="-12.4" font-family="Times,serif" font-size="14.00">TRANSL</text>
</g>
<!-- /DATA/&#45;&gt;TRANSL -->
<g id="edge82" class="edge"><title>/DATA/&#45;&gt;TRANSL</title>
<path fill="none" stroke="black" d="M1146.57,-76.9666C1173.44,-66.0321 1213.46,-49.7432 1244.24,-37.2143"/>
<polygon fill="black" stroke="black" points="1245.94,-40.3016 1253.89,-33.2902 1243.31,-33.818 1245.94,-40.3016"/>
</g>
<!-- ZOOM -->
<g id="node76" class="node"><title>ZOOM</title>
<polygon fill="gold" stroke="black" points="1655.41,-36 1598.59,-36 1598.59,-0 1655.41,-0 1655.41,-36"/>
<text text-anchor="middle" x="1627" y="-12.4" font-family="Times,serif" font-size="14.00">ZOOM</text>
</g>
<!-- /DATA/&#45;&gt;ZOOM -->
<g id="edge84" class="edge"><title>/DATA/&#45;&gt;ZOOM</title>
<path fill="none" stroke="black" d="M1146.59,-88.8191C1220.42,-87.7111 1418.38,-80.6965 1588.42,-35.6135"/>
<polygon fill="black" stroke="black" points="1589.55,-38.9336 1598.29,-32.9447 1587.73,-32.1762 1589.55,-38.9336"/>
</g>
<!-- /STACK/&#45;&gt;DUMP -->
<g id="edge22" class="edge"><title>/STACK/&#45;&gt;DUMP</title>
<path fill="none" stroke="black" d="M2032.24,-71.6966C2021.76,-62.9655 2008.89,-52.2405 1997.5,-42.7503"/>
<polygon fill="black" stroke="black" points="1999.45,-39.8174 1989.53,-36.1043 1994.97,-45.195 1999.45,-39.8174"/>
</g>
<!-- PULL -->
<g id="node60" class="node"><title>PULL</title>
<polygon fill="gold" stroke="black" points="2159,-36 2105,-36 2105,-0 2159,-0 2159,-36"/>
<text text-anchor="middle" x="2132" y="-12.4" font-family="Times,serif" font-size="14.00">PULL</text>
</g>
<!-- /STACK/&#45;&gt;PULL -->
<g id="edge66" class="edge"><title>/STACK/&#45;&gt;PULL</title>
<path fill="none" stroke="black" d="M2072.53,-71.6966C2082.38,-62.9655 2094.49,-52.2405 2105.2,-42.7503"/>
<polygon fill="black" stroke="black" points="2107.53,-45.3558 2112.7,-36.1043 2102.89,-40.1166 2107.53,-45.3558"/>
</g>
<!-- PUSH -->
<g id="node62" class="node"><title>PUSH</title>
<polygon fill="gold" stroke="black" points="2231,-36 2177,-36 2177,-0 2231,-0 2231,-36"/>
<text text-anchor="middle" x="2204" y="-12.4" font-family="Times,serif" font-size="14.00">PUSH</text>
</g>
<!-- /STACK/&#45;&gt;PUSH -->
<g id="edge68" class="edge"><title>/STACK/&#45;&gt;PUSH</title>
<path fill="none" stroke="black" d="M2087,-73.4291C2107.95,-63.8163 2135.56,-51.1045 2167.7,-36.1222"/>
<polygon fill="black" stroke="black" points="2169.3,-39.2368 2176.89,-31.837 2166.34,-32.8932 2169.3,-39.2368"/>
</g>
<!-- /FILE/&#45;&gt;DUMP -->
<g id="edge24" class="edge"><title>/FILE/&#45;&gt;DUMP</title>
<path fill="none" stroke="black" d="M1528.21,-88.4392C1596.99,-86.4267 1782.82,-77.2733 1931,-36 1931.1,-35.9721 1931.2,-35.944 1931.3,-35.9157"/>
<polygon fill="black" stroke="black" points="1932.34,-39.2573 1940.71,-32.7498 1930.11,-32.6232 1932.34,-39.2573"/>
</g>
<!-- /FILE/&#45;&gt;LOADER -->
<g id="edge58" class="edge"><title>/FILE/&#45;&gt;LOADER</title>
<path fill="none" stroke="black" d="M1473.92,-73.4647C1457.39,-63.9804 1435.99,-51.7 1417.69,-41.2014"/>
<polygon fill="black" stroke="black" points="1419.41,-38.1517 1409,-36.2108 1415.93,-44.2233 1419.41,-38.1517"/>
</g>
<!-- /FILE/&#45;&gt;MAIN -->
<g id="edge62" class="edge"><title>/FILE/&#45;&gt;MAIN</title>
<path fill="none" stroke="black" d="M1490.87,-71.6966C1486.15,-63.6436 1480.44,-53.8945 1475.22,-44.9824"/>
<polygon fill="black" stroke="black" points="1478.09,-42.9643 1470.02,-36.1043 1472.05,-46.5021 1478.09,-42.9643"/>
</g>
<!-- /FILE/&#45;&gt;RENAME -->
<g id="edge74" class="edge"><title>/FILE/&#45;&gt;RENAME</title>
<path fill="none" stroke="black" d="M1511.38,-71.6966C1516.26,-63.5589 1522.19,-53.689 1527.58,-44.7013"/>
<polygon fill="black" stroke="black" points="1530.59,-46.48 1532.74,-36.1043 1524.59,-42.8785 1530.59,-46.48"/>
</g>
<!-- /FILE/&#45;&gt;ZOOM -->
<g id="edge86" class="edge"><title>/FILE/&#45;&gt;ZOOM</title>
<path fill="none" stroke="black" d="M1528.03,-73.9832C1545.96,-64.0198 1569.75,-50.8073 1589.5,-39.8314"/>
<polygon fill="black" stroke="black" points="1591.22,-42.8815 1598.26,-34.9655 1587.82,-36.7624 1591.22,-42.8815"/>
</g>
<!-- /BOX/ -->
<g id="node18" class="node"><title>/BOX/</title>
<polygon fill="gold" stroke="black" points="246,-108 192,-108 192,-72 246,-72 246,-108"/>
<text text-anchor="middle" x="219" y="-84.4" font-family="Times,serif" font-size="14.00">/BOX/</text>
</g>
<!-- /BOX/&#45;&gt;DRAW -->
<g id="edge18" class="edge"><title>/BOX/&#45;&gt;DRAW</title>
<path fill="none" stroke="black" d="M209.607,-71.6966C205.235,-63.6436 199.943,-53.8945 195.105,-44.9824"/>
<polygon fill="black" stroke="black" points="198.132,-43.223 190.285,-36.1043 191.98,-46.5627 198.132,-43.223"/>
</g>
<!-- /BOX/&#45;&gt;FORM -->
<g id="edge32" class="edge"><title>/BOX/&#45;&gt;FORM</title>
<path fill="none" stroke="black" d="M228.146,-71.6966C232.403,-63.6436 237.556,-53.8945 242.266,-44.9824"/>
<polygon fill="black" stroke="black" points="245.38,-46.5809 246.959,-36.1043 239.192,-43.3097 245.38,-46.5809"/>
</g>
<!-- /MOUSE/ -->
<g id="node24" class="node"><title>/MOUSE/</title>
<polygon fill="gold" stroke="black" points="1922.09,-108 1849.91,-108 1849.91,-72 1922.09,-72 1922.09,-108"/>
<text text-anchor="middle" x="1886" y="-84.4" font-family="Times,serif" font-size="14.00">/MOUSE/</text>
</g>
<!-- /MOUSE/&#45;&gt;DUMP -->
<g id="edge26" class="edge"><title>/MOUSE/&#45;&gt;DUMP</title>
<path fill="none" stroke="black" d="M1906.52,-71.6966C1916.87,-62.9655 1929.59,-52.2405 1940.84,-42.7503"/>
<polygon fill="black" stroke="black" points="1943.33,-45.2269 1948.72,-36.1043 1938.82,-39.8759 1943.33,-45.2269"/>
</g>
<!-- /MOUSE/&#45;&gt;INCMND -->
<g id="edge46" class="edge"><title>/MOUSE/&#45;&gt;INCMND</title>
<path fill="none" stroke="black" d="M1849.53,-74.496C1822.3,-63.6664 1784.91,-48.7947 1755.69,-37.172"/>
<polygon fill="black" stroke="black" points="1756.7,-33.8091 1746.12,-33.3655 1754.12,-40.3135 1756.7,-33.8091"/>
</g>
<!-- /MOUSE/&#45;&gt;INTEXT -->
<g id="edge50" class="edge"><title>/MOUSE/&#45;&gt;INTEXT</title>
<path fill="none" stroke="black" d="M1864.25,-71.6966C1853.16,-62.8807 1839.53,-52.0321 1827.51,-42.4742"/>
<polygon fill="black" stroke="black" points="1829.51,-39.5905 1819.5,-36.1043 1825.15,-45.0687 1829.51,-39.5905"/>
</g>
<!-- INZOOM -->
<g id="node48" class="node"><title>INZOOM</title>
<polygon fill="gold" stroke="black" points="2086.49,-36 2015.51,-36 2015.51,-0 2086.49,-0 2086.49,-36"/>
<text text-anchor="middle" x="2051" y="-12.4" font-family="Times,serif" font-size="14.00">INZOOM</text>
</g>
<!-- /MOUSE/&#45;&gt;INZOOM -->
<g id="edge52" class="edge"><title>/MOUSE/&#45;&gt;INZOOM</title>
<path fill="none" stroke="black" d="M1922.21,-73.6382C1946.88,-63.1719 1979.72,-49.2415 2006.06,-38.0663"/>
<polygon fill="black" stroke="black" points="2007.6,-41.2129 2015.44,-34.0853 2004.87,-34.7688 2007.6,-41.2129"/>
</g>
<!-- /MOUSE/&#45;&gt;TRACKR -->
<g id="edge80" class="edge"><title>/MOUSE/&#45;&gt;TRACKR</title>
<path fill="none" stroke="black" d="M1886,-71.6966C1886,-63.9827 1886,-54.7125 1886,-46.1124"/>
<polygon fill="black" stroke="black" points="1889.5,-46.1043 1886,-36.1043 1882.5,-46.1044 1889.5,-46.1043"/>
</g>
</g>
</svg>
